<svg width="14" height="16" viewBox="0 0 14 16" fill="none" xmlns="http://www.w3.org/2000/svg">
<path d="M10.9189 4.7872C11.8898 4.096 10.9189 1.5872 10.9189 1.5872L13.5 3.2V6.4L8.33789 9.6512V6.4C8.33789 6.4 9.49766 5.79908 10.9189 4.7872Z" fill="#979797"/>
<path d="M10.9189 11.136C11.8898 10.4448 10.9189 7.936 10.9189 7.936L13.5 9.5488V12.7488L8.33789 16V12.7488C8.33789 12.7488 9.49766 12.1479 10.9189 11.136Z" fill="#979797"/>
<path d="M3.10474 6.4512L5.70947 8.1408V14.6432L3.10474 12.9536V6.4512Z" fill="#979797"/>
<path d="M8.31421 0L10.9693 1.61948L3.12836 6.53468L0.5 4.8384L8.31421 0Z" fill="#979797"/>
</svg>
