<svg width="15" height="20" viewBox="0 0 15 20" fill="none" xmlns="http://www.w3.org/2000/svg">
<path d="M12.0219 6.1848C13.1421 5.364 12.0219 2.3848 12.0219 2.3848L15 4.3V8.1L9.04372 11.9608V8.1C9.04372 8.1 10.3819 7.38641 12.0219 6.1848Z" fill="#080808"/>
<path d="M12.0219 13.724C13.1421 12.9032 12.0219 9.924 12.0219 9.924L15 11.8392V15.6392L9.04372 19.5V15.6392C9.04372 15.6392 10.3819 14.9256 12.0219 13.724Z" fill="#080808"/>
<path d="M3.00547 8.1608L6.01093 10.1672V17.8888L3.00547 15.8824V8.1608Z" fill="#080808"/>
<path d="M9.01639 0.5L12.0799 2.42313L3.03273 8.25993L0 6.2456L9.01639 0.5Z" fill="#080808"/>
</svg>
